<?xml version="1.0" standalone="no"?>
<!DOCTYPE svg PUBLIC "-//W3C//DTD SVG 20010904//EN"
 "http://www.w3.org/TR/2001/REC-SVG-20010904/DTD/svg10.dtd">
<svg version="1.0" xmlns="http://www.w3.org/2000/svg"
 width="200.000000pt" height="117.000000pt" viewBox="0 0 200.000000 117.000000"
 preserveAspectRatio="xMidYMid meet">

<g transform="translate(0.000000,117.000000) scale(0.100000,-0.100000)"
fill="#000000" stroke="none">
<path d="M625 1107 c-8 -13 -29 -64 -45 -113 -33 -97 -70 -145 -148 -191 -32
-19 -52 -24 -77 -20 -44 7 -54 -8 -16 -21 21 -8 38 -26 56 -62 31 -62 30 -92
-5 -100 -22 -5 -23 -7 -7 -13 28 -11 57 10 57 40 0 15 -13 50 -30 79 l-29 53
44 21 c24 12 63 40 86 63 23 23 40 34 36 24 -9 -23 -24 -159 -32 -284 l-7
-103 -137 -44 c-75 -24 -170 -49 -211 -56 -108 -17 -112 -21 -42 -36 35 -7 85
-25 110 -40 49 -28 166 -140 216 -207 16 -21 33 -34 37 -30 9 9 39 288 39 359
0 36 4 44 23 50 12 3 265 103 562 221 529 210 674 275 683 302 3 10 -5 8 -24
-6 -42 -29 -161 -81 -394 -171 -113 -44 -244 -96 -293 -116 -94 -39 -101 -41
-93 -27 9 13 -26 23 -38 11 -7 -7 -6 -10 3 -10 7 0 9 -4 6 -10 -12 -20 -25 -9
-25 20 0 17 -9 39 -20 50 -20 20 -22 20 -50 3 -21 -12 -37 -36 -56 -83 -14
-37 -35 -72 -46 -79 -19 -12 -20 -11 -13 6 39 95 35 134 -13 128 -15 -2 -30
-4 -33 -4 -4 -1 -12 -15 -19 -32 l-13 -31 -16 26 c-9 14 -21 26 -28 26 -17 0
-53 -59 -52 -85 0 -11 3 -14 6 -7 2 6 9 10 14 6 5 -3 9 4 9 15 0 13 7 21 16
21 14 0 14 3 4 15 -8 10 -9 15 -1 15 6 0 18 -14 26 -31 15 -28 15 -33 0 -55
-19 -29 -24 -29 -41 -6 -7 9 -14 12 -14 5 0 -6 7 -19 16 -28 12 -12 19 -13 30
-4 11 9 14 9 14 0 0 -7 5 -9 10 -6 6 3 10 17 10 30 0 13 9 44 20 69 18 44 21
46 42 34 13 -7 24 -13 25 -14 2 0 -4 -21 -13 -46 -18 -54 -41 -78 -78 -82 -15
-2 -32 -8 -38 -14 -18 -18 -38 -14 -49 11 -8 19 -9 18 -5 -9 4 -26 1 -33 -17
-38 -11 -3 -23 -3 -26 -1 -2 3 4 91 13 197 17 187 18 195 50 248 53 87 76 137
76 165 0 32 -24 33 -45 2z m30 -19 c-8 -25 -64 -128 -70 -128 -6 0 19 67 41
113 19 40 40 51 29 15z m255 -373 c18 -48 -17 -77 -41 -33 -8 16 -9 23 -1 26
6 2 8 10 5 18 -3 9 1 14 11 14 9 0 21 -11 26 -25z m-23 -69 c15 -6 15 -8 3
-16 -23 -15 -60 -12 -67 6 -3 8 0 27 7 42 l12 27 14 -26 c7 -15 21 -30 31 -33z
m-69 -47 c-21 -14 -26 -10 -21 11 4 16 8 18 20 9 11 -10 11 -14 1 -20z m-314
-226 c-3 -49 -9 -126 -15 -173 -5 -47 -9 -91 -9 -99 0 -7 -46 34 -102 92 -79
81 -117 113 -164 134 l-61 29 91 23 c50 13 125 36 166 52 41 15 80 28 87 28 9
1 11 -22 7 -86z"/>
<path d="M694 806 c-36 -36 -45 -76 -18 -76 11 0 14 6 9 20 -13 40 79 95 100
60 9 -15 61 -12 75 5 15 18 7 19 -19 3 -14 -9 -23 -8 -42 5 -36 26 -67 21
-105 -17z"/>
<path d="M1895 616 c-20 -30 -16 -85 6 -99 20 -12 82 10 73 25 -4 6 -10 6 -17
-1 -14 -14 -54 -14 -62 -1 -3 6 4 10 17 10 29 1 73 34 64 49 -11 17 -39 14
-32 -4 4 -10 -3 -20 -19 -27 -14 -6 -27 -9 -30 -6 -10 9 17 58 32 58 7 0 13 5
13 10 0 19 -30 10 -45 -14z"/>
<path d="M1719 596 c-12 -25 -13 -25 -32 -9 -18 17 -19 17 -33 -2 -16 -21 -19
-91 -5 -99 5 -3 12 1 15 10 9 22 8 26 -6 18 -8 -5 -9 2 -4 26 3 19 9 36 12 39
11 11 24 -25 24 -66 0 -24 5 -43 10 -43 6 0 10 15 10 34 0 18 5 48 11 66 10
27 13 30 21 16 5 -10 7 -35 3 -57 -4 -25 -3 -39 4 -39 6 0 11 15 11 33 1 73
50 78 51 5 0 -37 2 -40 10 -20 5 14 6 38 1 55 -7 25 -14 32 -34 32 -14 1 -33
7 -42 14 -13 11 -17 9 -27 -13z"/>
<path d="M1580 565 c0 -27 22 -115 28 -115 4 0 7 17 7 38 0 20 4 49 8 65 4 16
3 27 -2 27 -5 0 -12 -10 -14 -22 l-4 -23 -2 23 c-1 24 -21 31 -21 7z"/>
<path d="M1480 527 c-26 -42 -28 -127 -3 -127 21 0 73 49 73 69 0 9 -13 0 -31
-22 -17 -20 -35 -35 -40 -32 -16 11 -10 43 10 48 25 6 53 50 45 70 -11 30 -34
28 -54 -6z m40 -11 c0 -17 -28 -41 -37 -32 -10 9 16 58 27 51 6 -3 10 -12 10
-19z"/>
<path d="M818 493 c-8 -10 -21 -28 -27 -41 -19 -36 -41 -154 -32 -170 5 -9 10
6 14 41 7 66 43 154 69 168 15 8 24 6 40 -8 20 -18 20 -17 17 2 -6 27 -59 33
-81 8z"/>
<path d="M1210 505 c-5 -33 3 -152 11 -160 6 -6 22 3 46 28 19 21 32 41 28 45
-3 4 -19 -8 -33 -26 -15 -18 -31 -32 -36 -32 -5 0 -6 21 -2 48 3 26 2 61 -3
77 -5 17 -10 26 -11 20z"/>
<path d="M1305 458 c12 -95 23 -102 49 -33 10 25 21 45 26 45 4 0 11 -22 15
-50 4 -27 11 -50 16 -50 5 0 7 10 5 23 -3 12 -8 39 -11 60 -8 48 -33 47 -54
-1 -19 -43 -31 -40 -31 7 0 22 -5 43 -10 46 -8 5 -9 -11 -5 -47z"/>
<path d="M1060 484 c0 -8 5 -12 10 -9 16 10 12 -101 -4 -140 -8 -19 -20 -35
-25 -35 -18 0 -43 48 -37 68 7 22 -12 72 -26 72 -21 0 15 -121 43 -146 19 -17
20 -17 40 2 22 22 44 141 34 182 -6 25 -35 31 -35 6z"/>
<path d="M1153 381 c6 -22 14 -38 18 -35 4 2 3 19 -2 37 -5 17 -9 33 -9 34 0
2 -4 3 -9 3 -4 0 -3 -18 2 -39z"/>
<path d="M896 335 c-15 -8 -34 -15 -42 -15 -19 0 -64 -22 -64 -32 0 -12 32 -9
60 6 34 19 60 4 60 -35 0 -63 -48 -111 -93 -93 -9 3 -25 24 -37 47 -18 36 -20
38 -15 12 12 -58 32 -76 77 -73 49 4 77 34 85 95 4 29 1 44 -12 56 -15 16 -15
18 0 23 26 10 40 -13 41 -69 2 -183 3 -186 30 -203 23 -16 28 -16 58 -1 32 15
114 103 104 112 -2 3 -28 -20 -57 -50 -57 -59 -92 -70 -111 -36 -5 11 -10 65
-10 120 0 98 -12 151 -34 151 -6 0 -24 -7 -40 -15z"/>
</g>
</svg>
